<svg width="61" height="55" viewBox="0 0 61 55" fill="none" xmlns="http://www.w3.org/2000/svg">
<g clip-path="url(#clip0_179_1777)">
<path d="M49.5973 5.63599H11.4008C8.0889 5.63599 5.39392 8.45401 5.39392 11.9279V12.4624C5.39392 15.9315 8.0889 18.7544 11.4008 18.7544H12.8473C13.9996 22.1778 15.8277 25.1678 18.151 27.5233C19.1148 26.5435 20.182 25.6691 21.3343 24.9151C18.9806 22.6908 17.1889 19.6416 16.2347 16.0947L15.8247 14.5681H11.4008C10.2935 14.5681 9.39227 13.6236 9.39227 12.4634V11.9289C9.39227 10.7677 10.2935 9.82415 11.4008 9.82415H49.5973C50.7055 9.82415 51.6078 10.7687 51.6078 11.9289V12.4634C51.6078 13.6236 50.7055 14.5681 49.5973 14.5681H45.1665L44.7566 16.0947C43.3836 21.2138 40.2581 25.3262 36.1783 27.3746C35.9537 27.4883 35.7154 27.6 35.4722 27.705C35.2604 27.7954 35.0446 27.8809 34.8367 27.9586C34.4314 28.1096 34.0182 28.2394 33.5991 28.3473C33.2 28.4514 32.7957 28.5347 32.3879 28.597C31.9625 28.6622 31.534 28.7057 31.1041 28.7272C30.546 28.7542 29.9867 28.7432 29.4301 28.6942C29.1692 28.6719 28.9093 28.6388 28.6455 28.597C28.4592 28.6787 28.2738 28.7622 28.0914 28.8516C27.8041 28.9935 27.5138 29.1431 27.2333 29.3054C26.0975 29.9535 25.0368 30.7232 24.0705 31.6007C24.1195 31.622 24.1686 31.6463 24.2176 31.6667C24.708 31.8718 25.2189 32.0554 25.7279 32.2099C25.924 32.2682 26.1123 32.3236 26.2997 32.3732C27.2167 32.6194 28.154 32.784 29.1006 32.8649C29.5654 32.9057 30.0352 32.9261 30.4971 32.9261C30.7599 32.9261 31.0227 32.9193 31.2875 32.9067C31.8485 32.8786 32.4076 32.8219 32.9626 32.7366C33.4982 32.655 34.0292 32.5457 34.5533 32.4091C35.1022 32.2682 35.6433 32.0989 36.1744 31.9019C36.4686 31.7911 36.7334 31.6862 36.9864 31.5773C37.3091 31.4384 37.6229 31.2916 37.9132 31.1439C38.5126 30.842 39.0945 30.5069 39.6559 30.1401C40.8079 29.3832 41.8745 28.5059 42.8373 27.5233C45.1606 25.1688 46.9887 22.169 48.139 18.7505H49.5924C52.9053 18.7505 55.6012 15.9325 55.6012 12.4585V11.9241C55.6061 8.45401 52.9102 5.63599 49.5973 5.63599Z" fill="#FF6600"/>
<path d="M49.5973 36.2951H48.1439C46.9926 32.8746 45.1616 29.8759 42.8383 27.5233C41.8754 28.5059 40.8089 29.3833 39.6569 30.1402C42.0155 32.3654 43.8063 35.4167 44.7566 38.9557L45.1665 40.4823H49.5973C50.7055 40.4823 51.6078 41.4268 51.6078 42.5871V43.1206C51.6078 44.2808 50.7055 45.2253 49.5973 45.2253H11.4008C10.2935 45.2253 9.39227 44.2808 9.39227 43.1206V42.5871C9.39227 41.4268 10.2935 40.4823 11.4008 40.4823H15.8286L16.2386 38.9557C17.6361 33.755 20.8224 29.6145 24.9806 27.5962C25.214 27.4825 25.4553 27.3746 25.6936 27.2745C26.0712 27.1181 26.4595 26.9782 26.8498 26.8596C26.995 26.8149 27.144 26.7731 27.2941 26.7323C27.9947 26.5442 28.7108 26.4187 29.434 26.3572C29.9884 26.3092 30.5454 26.2984 31.1012 26.3252C31.2836 26.3339 31.467 26.3495 31.6504 26.3669L31.6936 26.3514C31.9623 26.2426 32.2418 26.125 32.5154 25.9996C32.8292 25.8548 33.1381 25.7013 33.4265 25.5449C34.5801 24.9226 35.6648 24.1823 36.6628 23.3361C36.5098 23.2739 36.3499 23.2117 36.1724 23.1418C35.6458 22.9473 35.1093 22.7802 34.5651 22.6413C34.0387 22.5041 33.5054 22.3941 32.9675 22.3119C32.4098 22.2269 31.8481 22.1705 31.2846 22.1428C30.5578 22.1081 29.8294 22.1221 29.1045 22.1846C28.1584 22.2637 27.2214 22.4263 26.3046 22.6705C26.1084 22.722 25.9123 22.7774 25.7269 22.8357C25.2189 22.9902 24.7109 23.1729 24.2137 23.3798C23.9048 23.5091 23.5968 23.6471 23.2967 23.7928C18.5001 26.125 14.7538 30.626 12.8483 36.2912H11.4008C8.0889 36.2912 5.39392 39.1093 5.39392 42.5832V43.1167C5.39392 46.5858 8.0889 49.4086 11.4008 49.4086H49.5973C52.9102 49.4086 55.6061 46.5906 55.6061 43.1167V42.5832C55.6061 39.118 52.9102 36.2951 49.5973 36.2951Z" fill="black"/>
</g>
<defs>
<clipPath id="clip0_179_1777">
<rect width="50.2122" height="43.7775" fill="white" transform="translate(5.39392 5.63599)"/>
</clipPath>
</defs>
</svg>
