<svg xmlns="http://www.w3.org/2000/svg" width="51" height="43" viewBox="0 0 51 43" fill="none">
  <g clip-path="url(#clip0_179_1759)">
    <path d="M44.5973 0.135986H6.40075C3.0889 0.135986 0.393921 2.95401 0.393921 6.42795V6.9624C0.393921 10.4315 3.0889 13.2544 6.40075 13.2544H7.8473C8.99963 16.6778 10.8277 19.6678 13.151 22.0233C14.1148 21.0435 15.182 20.1691 16.3343 19.4151C13.9806 17.1908 12.1889 14.1416 11.2347 10.5947L10.8247 9.06814H6.40075C5.29354 9.06814 4.39227 8.12362 4.39227 6.96337V6.42892C4.39227 5.2677 5.29354 4.32415 6.40075 4.32415H44.5973C45.7055 4.32415 46.6078 5.26867 46.6078 6.42892V6.96337C46.6078 8.12362 45.7055 9.06814 44.5973 9.06814H40.1665L39.7566 10.5947C38.3836 15.7138 35.2581 19.8262 31.1783 21.8746C30.9537 21.9883 30.7154 22.1 30.4722 22.205C30.2604 22.2954 30.0446 22.3809 29.8367 22.4586C29.4314 22.6096 29.0182 22.7394 28.5991 22.8473C28.2 22.9514 27.7957 23.0347 27.3879 23.097C26.9625 23.1622 26.534 23.2057 26.1041 23.2272C25.546 23.2542 24.9867 23.2432 24.4301 23.1942C24.1692 23.1719 23.9093 23.1388 23.6455 23.097C23.4592 23.1787 23.2738 23.2622 23.0914 23.3516C22.8041 23.4935 22.5138 23.6431 22.2333 23.8054C21.0975 24.4535 20.0368 25.2232 19.0705 26.1007C19.1195 26.122 19.1686 26.1463 19.2176 26.1667C19.708 26.3718 20.2189 26.5554 20.7279 26.7099C20.924 26.7682 21.1123 26.8236 21.2997 26.8732C22.2167 27.1194 23.154 27.284 24.1006 27.3649C24.5654 27.4057 25.0352 27.4261 25.4971 27.4261C25.7599 27.4261 26.0227 27.4193 26.2875 27.4067C26.8485 27.3786 27.4076 27.3219 27.9626 27.2366C28.4982 27.155 29.0292 27.0457 29.5533 26.9091C30.1022 26.7682 30.6433 26.5989 31.1744 26.4019C31.4686 26.2911 31.7334 26.1862 31.9864 26.0773C32.3091 25.9384 32.6229 25.7916 32.9132 25.6439C33.5126 25.342 34.0945 25.0069 34.6559 24.6401C35.8079 23.8832 36.8745 23.0059 37.8373 22.0233C40.1606 19.6688 41.9887 16.669 43.139 13.2505H44.5924C47.9053 13.2505 50.6012 10.4325 50.6012 6.95851V6.42406C50.6061 2.95401 47.9102 0.135986 44.5973 0.135986Z" fill="white"/>
    <path d="M44.5973 30.7951H43.1439C41.9926 27.3746 40.1616 24.3759 37.8383 22.0233C36.8754 23.0059 35.8089 23.8833 34.6569 24.6402C37.0155 26.8654 38.8063 29.9167 39.7566 33.4557L40.1665 34.9823H44.5973C45.7055 34.9823 46.6078 35.9268 46.6078 37.0871V37.6206C46.6078 38.7808 45.7055 39.7253 44.5973 39.7253H6.40075C5.29354 39.7253 4.39227 38.7808 4.39227 37.6206V37.0871C4.39227 35.9268 5.29354 34.9823 6.40075 34.9823H10.8286L11.2386 33.4557C12.6361 28.255 15.8224 24.1145 19.9806 22.0962C20.214 21.9825 20.4553 21.8746 20.6936 21.7745C21.0712 21.6181 21.4595 21.4782 21.8498 21.3596C21.995 21.3149 22.144 21.2731 22.2941 21.2323C22.9947 21.0442 23.7108 20.9187 24.434 20.8572C24.9884 20.8092 25.5454 20.7984 26.1012 20.8252C26.2836 20.8339 26.467 20.8495 26.6504 20.8669L26.6936 20.8514C26.9623 20.7426 27.2418 20.625 27.5154 20.4996C27.8292 20.3548 28.1381 20.2013 28.4265 20.0449C29.5801 19.4226 30.6648 18.6823 31.6628 17.8361C31.5098 17.7739 31.3499 17.7117 31.1724 17.6418C30.6458 17.4473 30.1093 17.2802 29.5651 17.1413C29.0387 17.0041 28.5054 16.8941 27.9675 16.8119C27.4098 16.7269 26.8481 16.6705 26.2846 16.6428C25.5578 16.6081 24.8294 16.6221 24.1045 16.6846C23.1584 16.7637 22.2214 16.9263 21.3046 17.1705C21.1084 17.222 20.9123 17.2774 20.7269 17.3357C20.2189 17.4902 19.7109 17.6729 19.2137 17.8798C18.9048 18.0091 18.5968 18.1471 18.2967 18.2928C13.5001 20.625 9.75379 25.126 7.84828 30.7912H6.40075C3.0889 30.7912 0.393921 33.6093 0.393921 37.0832V37.6167C0.393921 41.0858 3.0889 43.9086 6.40075 43.9086H44.5973C47.9102 43.9086 50.6061 41.0906 50.6061 37.6167V37.0832C50.6061 33.618 47.9102 30.7951 44.5973 30.7951Z" fill="white"/>
  </g>
  <defs>
    <clipPath id="clip0_179_1759">
      <rect width="50" height="43" fill="white" transform="translate(0.393921 0.135986)"/>
    </clipPath>
  </defs>
</svg>